# xmcd
#
# Track frame offsets:
#	150
#	19579
#	41641
#	58069
#	77619
#	94726
#
# Disc length: 1499 seconds
#
# Revision: 2
# Processed by: cddbd v1.4PL0 Copyright (c) Steve Scherf et al.
# Submitted via: CDmax 1.8
#
DISCID=4005d906
DTITLE=The Arlenes
DYEAR=1900
DGENRE=Country
TTITLE0=Old Brown Shoes
TTITLE1=Dr Love
TTITLE2=Hospital Food
TTITLE3=I'm Alright Jack
TTITLE4=She Ran Me Down
TTITLE5=Springboard
EXTD=6 track EP on Lido Records (LIDO1001]\nReleased 1999\nRecorded in West Ha
EXTD=mpstead, London, England\nwww.arlenes.demon.co.uk\nbigsteve@arlenes.demon
EXTD=co.uk\nsteph@arlenes.demon.co.uk\n
EXTT0=
EXTT1=
EXTT2=
EXTT3=
EXTT4=
EXTT5=
PLAYORDER=
